<?xml version="1.0" encoding="UTF-8"?>
<svg version="1.1" xmlns="http://www.w3.org/2000/svg" width="328" height="295">
<path d="M0 0 C4.33658107 1.44552702 5.29537237 4.71787522 7.3125 8.5625 C10.35476025 14.24080131 13.47434192 19.84375018 16.8046875 25.359375 C17.76894653 26.96510376 17.76894653 26.96510376 18.75268555 28.60327148 C20.02967974 30.72138992 21.31741593 32.83307382 22.61645508 34.93774414 C23.20064209 35.91348389 23.7848291 36.88922363 24.38671875 37.89453125 C24.91483154 38.75925049 25.44294434 39.62396973 25.98706055 40.51489258 C27.27226881 43.66797402 27.26401716 44.83377425 26 48 C24.13679596 50.19231753 22.30901182 52.1336905 20.2421875 54.11328125 C19.37027267 54.97314888 19.37027267 54.97314888 18.48074341 55.85038757 C16.62139566 57.68079624 14.74897824 59.49708358 12.875 61.3125 C11.02501903 63.11964389 9.17797416 64.92968648 7.33352661 66.74247742 C6.18745127 67.8672687 5.03786664 68.98850097 3.88400269 70.1053009 C0.97651132 72.94245458 -1.77630094 75.84855839 -4.43115234 78.92456055 C-7.99348347 83.04746888 -11.78070738 86.89166049 -15.65625 90.71875 C-16.7151947 91.77201477 -16.7151947 91.77201477 -17.79553223 92.84655762 C-20.77897375 95.81383766 -23.7684071 98.77505363 -26.75732422 101.73681641 C-28.95490579 103.91618465 -31.14937938 106.09864947 -33.34375 108.28125 C-34.00749634 108.936698 -34.67124268 109.592146 -35.35510254 110.26745605 C-39.16573044 114.05834102 -42.75192689 117.97056645 -46.2635498 122.03869629 C-49.11255347 125.25661839 -52.16037899 128.26381359 -55.21875 131.28125 C-55.88032104 131.93903442 -56.54189209 132.59681885 -57.22351074 133.27453613 C-60.01578144 136.05066558 -62.81405416 138.82071537 -65.61181641 141.59130859 C-67.67040898 143.6316708 -69.72587903 145.67514331 -71.78125 147.71875 C-72.40124878 148.33045044 -73.02124756 148.94215088 -73.66003418 149.5723877 C-77.43343506 153.3249284 -81.00033257 157.20237779 -84.47038269 161.23742676 C-86.50094121 163.57723299 -88.63177315 165.80017747 -90.8125 168 C-91.56144531 168.763125 -92.31039062 169.52625 -93.08203125 170.3125 C-95 172 -95 172 -97 172 C-96.42601255 167.55569715 -94.75387313 164.64377654 -92.375 160.875 C-87.88997191 153.62808974 -83.73934021 146.21217993 -79.625 138.75 C-74.76480218 129.94691143 -69.84056507 121.18819426 -64.77734375 112.5 C-60.86387484 105.78285188 -57.05119154 99.01240038 -53.25146484 92.23046875 C-45.55975632 78.52164138 -37.78631584 64.85946684 -29.97921753 51.21612549 C-25.29647312 43.03202118 -20.63507312 34.83622764 -16 26.625 C-15.47043701 25.68760986 -14.94087402 24.75021973 -14.39526367 23.78442383 C-11.54542729 18.73987029 -11.54542729 18.73987029 -8.70166016 13.69189453 C-7.57473961 11.68883294 -6.44411138 9.68791395 -5.3125 7.6875 C-4.40951172 6.08455078 -4.40951172 6.08455078 -3.48828125 4.44921875 C-2 2 -2 2 0 0 Z " fill="#070607" transform="translate(164,8)"/>
<path d="M0 0 C4.3234733 1.44115777 5.29151938 4.67118267 7.3125 8.5 C8.20877114 10.15541615 9.10595756 11.81033696 10.00390625 13.46484375 C10.48617676 14.35929199 10.96844727 15.25374023 11.46533203 16.17529297 C14.17664221 21.16572549 16.96771495 26.11140191 19.75 31.0625 C20.94820784 33.19905548 22.14612069 35.33577642 23.34375 37.47265625 C23.94574219 38.54660645 24.54773438 39.62055664 25.16796875 40.72705078 C27.00119142 44.00212848 28.82940511 47.27995484 30.65625 50.55859375 C38.13585704 63.97884223 38.13585704 63.97884223 45.875 77.25 C50.30025135 84.67434222 54.46769437 92.23612964 58.625 99.8125 C64.12789757 109.83848857 69.69700405 119.82202636 75.375 129.75 C75.7091391 130.33514374 76.0432782 130.92028748 76.38754272 131.52316284 C79.60447905 137.15341504 82.8411841 142.76815126 86.19140625 148.3203125 C86.89740967 149.4944873 86.89740967 149.4944873 87.61767578 150.69238281 C88.45992573 152.08522679 89.31036324 153.47317474 90.17138672 154.85449219 C92.41970996 158.56497002 93.58332614 161.67452854 94 166 C88.44379514 167.1901182 83.06863583 167.08708179 77.421875 166.984375 C75.91019745 166.95963104 75.91019745 166.95963104 74.36798096 166.93438721 C72.24656598 166.8970136 70.12520454 166.85648392 68.00390625 166.81298828 C64.74745804 166.74995079 61.49116885 166.70870321 58.234375 166.66796875 C56.17184921 166.62894442 54.10934742 166.58862512 52.046875 166.546875 C51.06982605 166.53734802 50.0927771 166.52782104 49.08612061 166.51800537 C48.18468323 166.49498352 47.28324585 166.47196167 46.35449219 166.44824219 C45.16252228 166.42706329 45.16252228 166.42706329 43.94647217 166.40545654 C42 166 42 166 40 163 C39.40719133 161.11782343 38.88381336 159.21348118 38.3984375 157.30078125 C38.08140869 156.06175049 37.76437988 154.82271973 37.43774414 153.54614258 C37.08332232 152.13497202 36.72908202 150.72375586 36.375 149.3125 C35.99182255 147.80288519 35.60826229 146.29336752 35.22436523 144.78393555 C33.80565785 139.19194182 32.40270731 133.59602493 31 128 C30.70704041 126.83227051 30.41408081 125.66454102 30.11224365 124.46142578 C24.03124013 100.22121673 17.96257113 75.97777486 11.95703125 51.71875 C11.09709464 48.24981594 10.23617735 44.78112621 9.375 41.3125 C9.17668579 40.51217346 8.97837158 39.71184692 8.77404785 38.88726807 C6.25852616 28.75150384 3.63756917 18.66260468 0.53466797 8.68676758 C-1.10237846 3.30713537 -1.10237846 3.30713537 0 0 Z " fill="#D7D6D7" transform="translate(195,61)"/>
<path d="M0 0 C9.56896039 1.2604467 18.67282014 3.70160106 27.9385376 6.30801392 C50.6744965 12.69334973 73.53733218 18.57253727 96.41556263 24.42096043 C99.80066879 25.28641083 103.18555155 26.15273179 106.5703125 27.01953125 C107.22516695 27.1871591 107.8800214 27.35478695 108.55471992 27.52749443 C118.90744859 30.17982452 129.2365582 32.91412837 139.54898071 35.7191925 C146.71719129 37.6681409 153.9043472 39.51325542 161.12109375 41.2734375 C164 42 164 42 167 43 C167 43.66 167 44.32 167 45 C103.31 45 39.62 45 -26 45 C-24.87590569 39.37952846 -24.87590569 39.37952846 -22.8125 36.3203125 C-22.36535645 35.64605225 -21.91821289 34.97179199 -21.45751953 34.27709961 C-20.97653809 33.56690674 -20.49555664 32.85671387 -20 32.125 C-18.99532545 30.60944335 -17.99275849 29.09248769 -16.9921875 27.57421875 C-16.48913086 26.81157715 -15.98607422 26.04893555 -15.46777344 25.26318359 C-13.26814148 21.87153551 -11.18726185 18.41388426 -9.125 14.9375 C-8.75834229 14.32011963 -8.39168457 13.70273926 -8.01391602 13.06665039 C-7.66256592 12.47489014 -7.31121582 11.88312988 -6.94921875 11.2734375 C-4.68920269 7.47805983 -2.36155307 3.73277743 0 0 Z " fill="#545454" transform="translate(64,184)"/>
<path d="M0 0 C2.82443858 0.04028518 4.20830824 0.06673721 6.31640625 1.99609375 C9.58367136 7.08647231 11.67436763 12.90379277 13.75 18.5625 C14.0173999 18.05275635 14.2847998 17.5430127 14.56030273 17.01782227 C15.7674623 14.71920784 16.97744223 12.42208995 18.1875 10.125 C18.60837891 9.32255859 19.02925781 8.52011719 19.46289062 7.69335938 C19.86572266 6.92958984 20.26855469 6.16582031 20.68359375 5.37890625 C21.05540771 4.67193604 21.42722168 3.96496582 21.81030273 3.23657227 C22.75 1.5625 22.75 1.5625 23.75 0.5625 C29.48611111 0.28935185 29.48611111 0.28935185 31.75 0.5625 C33.75 2.5625 33.75 2.5625 33.99291992 5.6953125 C33.98881104 7.01273438 33.98470215 8.33015625 33.98046875 9.6875 C33.98001053 10.3902002 33.97955231 11.09290039 33.9790802 11.81689453 C33.97605825 13.30307706 33.96817359 14.78925644 33.95581055 16.27539062 C33.93757206 18.55349925 33.93530075 20.83120104 33.93554688 23.109375 C33.89752629 34.26744741 33.89752629 34.26744741 32.75 36.5625 C30.41705225 36.60491723 28.08297433 36.60342937 25.75 36.5625 C23.63074396 34.44324396 24.33168983 29.9428907 24.1875 27 C24.14431641 26.19369141 24.10113281 25.38738281 24.05664062 24.55664062 C23.95024738 22.55881195 23.84959112 20.5606793 23.75 18.5625 C21.77 23.1825 19.79 27.8025 17.75 32.5625 C15.44 32.5625 13.13 32.5625 10.75 32.5625 C10.12237545 31.33467138 9.49803935 30.10516164 8.875 28.875 C8.52695313 28.19050781 8.17890625 27.50601562 7.8203125 26.80078125 C6.68456923 24.42566851 5.70377336 22.01567381 4.75 19.5625 C4.68941406 20.70589844 4.62882813 21.84929687 4.56640625 23.02734375 C4.48201572 24.51824305 4.39736698 26.00912775 4.3125 27.5 C4.25352539 28.63211914 4.25352539 28.63211914 4.19335938 29.78710938 C3.86328125 35.44921875 3.86328125 35.44921875 2.75 36.5625 C-0.75 36.6875 -0.75 36.6875 -4.25 36.5625 C-5.9829298 34.8295702 -5.37820046 32.60035664 -5.38894653 30.29101562 C-5.3869223 29.55560547 -5.38489807 28.82019531 -5.3828125 28.0625 C-5.38376923 27.31162109 -5.38472595 26.56074219 -5.38571167 25.78710938 C-5.38639338 24.19661373 -5.38453972 22.60611533 -5.38037109 21.015625 C-5.37502267 18.57285345 -5.38031634 16.13026579 -5.38671875 13.6875 C-5.38605797 12.14583293 -5.3847768 10.60416597 -5.3828125 9.0625 C-5.38483673 8.32708984 -5.38686096 7.59167969 -5.38894653 6.83398438 C-5.35908641 0.417015 -5.35908641 0.417015 0 0 Z " fill="#141114" transform="translate(184.25,238.4375)"/>
<path d="M0 0 C1.11375 0.7425 1.11375 0.7425 2.25 1.5 C2.45086443 5.21599191 2.4019437 6.27208445 0.25 9.5 C-0.34167969 9.355625 -0.93335938 9.21125 -1.54296875 9.0625 C-5.67529941 8.09177306 -9.4729762 7.22406298 -13.75 7.5 C-13.75 8.16 -13.75 8.82 -13.75 9.5 C-12.77417969 9.88671875 -11.79835938 10.2734375 -10.79296875 10.671875 C-9.50755936 11.19729781 -8.2224169 11.72337396 -6.9375 12.25 C-6.29490234 12.50265625 -5.65230469 12.7553125 -4.99023438 13.015625 C-1.22370081 14.57688244 1.29978309 15.84777561 3.25 19.5 C3.65899956 23.24916263 3.55609932 25.75175721 2.125 29.25 C-0.76960473 32.72352568 -3.5431637 34.19224392 -8.046875 34.8203125 C-14.46475913 35.11928226 -19.14523469 33.50772966 -24.75 30.5 C-25.41 30.17 -26.07 29.84 -26.75 29.5 C-26.20276317 26.12537285 -25.6951 24.41765 -23.75 21.5 C-20.78824877 22.11277612 -19.36941217 22.75372522 -16.75 24.5 C-12.13694331 25.60248995 -12.13694331 25.60248995 -7.75 24.5 C-7.75 23.84 -7.75 23.18 -7.75 22.5 C-8.56984375 22.25765625 -9.3896875 22.0153125 -10.234375 21.765625 C-11.85085937 21.26289063 -11.85085937 21.26289063 -13.5 20.75 C-15.10101563 20.26273437 -15.10101563 20.26273437 -16.734375 19.765625 C-19.96073368 18.41155737 -21.60335753 17.24348932 -23.75 14.5 C-24.7807527 11.49900645 -24.98698712 8.65982832 -24.75 5.5 C-20.17443537 -2.77121299 -8.08381235 -4.07084584 0 0 Z " fill="#141114" transform="translate(138.75,240.5)"/>
<path d="M0 0 C1.86901854 1.18523127 3.72105343 2.39736895 5.5625 3.625 C5.15566505 5.98464273 4.66435661 7.48434088 3.25 9.4375 C1.5625 10.625 1.5625 10.625 -0.5 10.375 C-2.4375 9.625 -2.4375 9.625 -4.4375 8.625 C-8.48260458 8.2266345 -8.48260458 8.2266345 -12.4375 8.625 C-15.03777788 11.5607976 -16.24172904 14.70958074 -16.4375 18.625 C-14.68636475 22.33761227 -14.68636475 22.33761227 -11.4375 24.625 C-6.10782792 24.96592041 -6.10782792 24.96592041 -1.4375 22.625 C1.07600164 22.86064078 2.32599274 23.43917287 4.3125 25 C5.5625 26.625 5.5625 26.625 5.5625 29.625 C-0.93187852 33.49399146 -6.78934064 36.34887084 -14.4375 34.625 C-19.55719534 32.23158205 -24.44900283 29.09336722 -26.4375 23.625 C-27.85168555 17.14892806 -28.00052837 11.40045031 -24.4375 5.625 C-18.01530339 -1.60687182 -8.91107537 -3.56443015 0 0 Z " fill="#050306" transform="translate(170.4375,240.375)"/>
<path d="M0 0 C1.86901854 1.18523127 3.72105343 2.39736895 5.5625 3.625 C5.15566505 5.98464273 4.66435661 7.48434088 3.25 9.4375 C1.5625 10.625 1.5625 10.625 -0.5 10.375 C-2.4375 9.625 -2.4375 9.625 -4.4375 8.625 C-8.48315166 8.22058877 -8.48315166 8.22058877 -12.4375 8.625 C-14.42672073 10.85697129 -14.42672073 10.85697129 -15.4375 13.625 C-16.4275 15.11 -16.4275 15.11 -17.4375 16.625 C-17.4375 14.315 -17.4375 12.005 -17.4375 9.625 C-19.9125 8.635 -19.9125 8.635 -22.4375 7.625 C-22.7675 9.275 -23.0975 10.925 -23.4375 12.625 C-24.4275 12.955 -25.4175 13.285 -26.4375 13.625 C-26.06465382 8.40515348 -24.33322281 5.05525983 -20.4375 1.625 C-13.93582826 -2.19951279 -6.98238254 -2.79295301 0 0 Z " fill="#080407" transform="translate(170.4375,240.375)"/>
<path d="M0 0 C3.45779064 1.15259688 3.62401136 1.58837337 5.26953125 4.6484375 C5.68098389 5.40181396 6.09243652 6.15519043 6.51635742 6.93139648 C6.94408447 7.73778564 7.37181152 8.5441748 7.8125 9.375 C8.25247314 10.18976807 8.69244629 11.00453613 9.14575195 11.84399414 C10.02638544 13.47488664 10.90395826 15.10743587 11.77832031 16.74169922 C12.83266092 18.69067017 13.91380979 20.61734404 15.0234375 22.53515625 C15.57257813 23.49292969 16.12171875 24.45070313 16.6875 25.4375 C17.16574219 26.26121094 17.64398438 27.08492187 18.13671875 27.93359375 C19 30 19 30 18 33 C15 27.25 15 27.25 15 25 C14.01 25 13.02 25 12 25 C12 25.66 12 26.32 12 27 C11.01 27 10.02 27 9 27 C9.33 29.64 9.66 32.28 10 35 C9.01 35.495 9.01 35.495 8 36 C6.87696706 31.81963104 5.75601964 27.63871004 4.63696289 23.45727539 C4.25634463 22.03622506 3.87516673 20.6153245 3.4934082 19.19458008 C2.94333435 17.1470431 2.39530567 15.09896784 1.84765625 13.05078125 C1.51773682 11.82012939 1.18781738 10.58947754 0.84790039 9.3215332 C-0.59477886 3.67003561 -0.59477886 3.67003561 -1 1 C-0.67 0.67 -0.34 0.34 0 0 Z " fill="#CFCCCD" transform="translate(195,61)"/>
<path d="M0 0 C1.65 0.33 3.3 0.66 5 1 C6.5111995 6.03733166 5.64599773 10.88171027 5 16 C5.66 16 6.32 16 7 16 C7 16.66 7 17.32 7 18 C6.34 18 5.68 18 5 18 C5.33 20.64 5.66 23.28 6 26 C1.59969671 24.86849344 -0.54808362 22.8162292 -2.98046875 19.140625 C-4.78562479 15.35048894 -5.64856802 11.16832479 -5 7 C-3.04296875 5.33984375 -3.04296875 5.33984375 -1 4 C-0.20376178 1.90584196 -0.20376178 1.90584196 0 0 Z " fill="#0B080C" transform="translate(148,247)"/>
<path d="M0 0 C2.96175123 0.61277612 4.38058783 1.25372522 7 3 C9.21389829 3.60103341 11.44602579 4.13675809 13.6875 4.625 C14.86699219 4.88539063 16.04648438 5.14578125 17.26171875 5.4140625 C18.16535156 5.60742188 19.06898438 5.80078125 20 6 C19.01 7.98 18.02 9.96 17 12 C9.11397658 12.4731614 3.79219135 12.17981006 -3 8 C-2.45276317 4.62537285 -1.9451 2.91765 0 0 Z " fill="#120E12" transform="translate(115,262)"/>
<path d="M0 0 C6.43681228 0.51085812 11.95942424 1.72942897 18 4 C18 4.66 18 5.32 18 6 C-16.98 6 -51.96 6 -88 6 C-88 5.67 -88 5.34 -88 5 C-86.94399597 4.99191315 -85.88799194 4.98382629 -84.79998779 4.97549438 C-74.85301231 4.89804343 -64.90617379 4.81030674 -54.95937729 4.71247292 C-49.84550444 4.66250565 -44.73165229 4.61617557 -39.61767578 4.578125 C-34.68333677 4.54127774 -29.74917077 4.49491917 -24.81497955 4.44193649 C-22.93154177 4.4233896 -21.04806689 4.40828273 -19.16457367 4.39665604 C-16.52848048 4.37979872 -13.89278378 4.35076489 -11.25683594 4.31884766 C-10.47640427 4.31668747 -9.6959726 4.31452728 -8.89189148 4.31230164 C-5.12207136 4.2539081 -2.1991606 4.11288288 1 2 C0.505 1.01 0.505 1.01 0 0 Z " fill="#6B6669" transform="translate(213,223)"/>
<path d="M0 0 C1.32 0.33 2.64 0.66 4 1 C4.02888146 4.31248187 4.04675799 7.62493167 4.0625 10.9375 C4.07087891 11.88302734 4.07925781 12.82855469 4.08789062 13.80273438 C4.09111328 14.70185547 4.09433594 15.60097656 4.09765625 16.52734375 C4.10289307 17.35999756 4.10812988 18.19265137 4.11352539 19.05053711 C4 21 4 21 3 22 C1.35 22 -0.3 22 -2 22 C-2 15.4 -2 8.8 -2 2 C-1.34 2 -0.68 2 0 2 C0 1.34 0 0.68 0 0 Z " fill="#020102" transform="translate(212,251)"/>
<path d="M0 0 C2.64 0.33 5.28 0.66 8 1 C8 1.66 8 2.32 8 3 C10.31 3.66 12.62 4.32 15 5 C15 5.33 15 5.66 15 6 C9.20858017 7.01603857 5.5415502 6.96263236 0 5 C-0.433125 6.0828125 -0.433125 6.0828125 -0.875 7.1875 C-1.91666667 9.79166667 -2.95833333 12.39583333 -4 15 C-4.66 14.67 -5.32 14.34 -6 14 C-6.226875 14.7425 -6.45375 15.485 -6.6875 16.25 C-8.24407532 19.51139591 -10.08518854 20.92894975 -13 23 C-11.37745627 18.43218669 -9.01524967 14.48940202 -6.5 10.375 C-6.09652344 9.70726562 -5.69304688 9.03953125 -5.27734375 8.3515625 C-3.56783864 5.53059697 -1.82989835 2.74484753 0 0 Z " fill="#524F50" transform="translate(64,184)"/>
<path d="M0 0 C2.3718534 0.75567337 3.91430133 1.60953422 6 3 C6.20086443 6.71599191 6.1519437 7.77208445 4 11 C1.03 10.34 -1.94 9.68 -5 9 C-4.45276317 5.62537285 -3.9451 3.91765 -2 1 C-8.435 1.495 -8.435 1.495 -15 2 C-10.33871102 -1.10752599 -5.46286701 -0.49662427 0 0 Z " fill="#211D1F" transform="translate(135,239)"/>
<path d="M0 0 C2 1 2 1 3 2 C7.30412515 3.63966672 11.43356371 4.45202764 16 5 C16 5.33 16 5.66 16 6 C14.741875 6.061875 13.48375 6.12375 12.1875 6.1875 C8.57674655 6.60763692 8.57674655 6.60763692 6.125 9.375 C5.75375 10.24125 5.3825 11.1075 5 12 C4.01 13.485 4.01 13.485 3 15 C3 12.69 3 10.38 3 8 C0.525 7.01 0.525 7.01 -2 6 C-2.33 7.65 -2.66 9.3 -3 11 C-3.99 11.33 -4.98 11.66 -6 12 C-5.59791618 6.37082652 -3.71069698 3.99613521 0 0 Z " fill="#211D20" transform="translate(150,242)"/>
<path d="M0 0 C2.48002593 2.48002593 2.29694693 3.32832513 2.3125 6.75 C2.24180906 11.18424975 1.40454652 14.19280134 -1 18 C-3.31 17.67 -5.62 17.34 -8 17 C-7 15 -7 15 -4 13 C-4 12.278125 -4 11.55625 -4 10.8125 C-4 7.02811104 -2.76053728 2.76053728 0 0 Z " fill="#070507" transform="translate(203,252)"/>
<path d="M0 0 C0.99 0.66 1.98 1.32 3 2 C5.11280345 2.63292383 5.11280345 2.63292383 7 3 C4.88094537 5.17277714 2.75527122 7.33826908 0.625 9.5 C0.02171875 10.12003906 -0.5815625 10.74007812 -1.203125 11.37890625 C-1.78320312 11.96542969 -2.36328125 12.55195313 -2.9609375 13.15625 C-3.49509277 13.70087891 -4.02924805 14.24550781 -4.57958984 14.80664062 C-6 16 -6 16 -8 16 C-7.43555175 11.65136348 -5.84572036 8.82172345 -3.4375 5.1875 C-2.79683594 4.21167969 -2.15617187 3.23585937 -1.49609375 2.23046875 C-0.75552734 1.12638672 -0.75552734 1.12638672 0 0 Z " fill="#2A2328" transform="translate(75,164)"/>
<path d="M0 0 C3 3 3 3 4.375 4.625 C6.48059676 6.4066588 8.30492384 6.63580052 11 7 C9.68 7.33 8.36 7.66 7 8 C6.896875 8.639375 6.79375 9.27875 6.6875 9.9375 C6.460625 10.618125 6.23375 11.29875 6 12 C5.01 12.33 4.02 12.66 3 13 C5.64458379 14.32229189 7.67761301 14.09677194 10.625 14.0625 C11.62789062 14.05347656 12.63078125 14.04445313 13.6640625 14.03515625 C14.43492187 14.02355469 15.20578125 14.01195312 16 14 C12.72872414 16.18085057 11.72623277 16.24887859 7.9375 16.1875 C7.05964844 16.18105469 6.18179688 16.17460937 5.27734375 16.16796875 C3 16 3 16 1 15 C0.5859375 12.93359375 0.5859375 12.93359375 0.375 10.4375 C0.30023438 9.61121094 0.22546875 8.78492188 0.1484375 7.93359375 C0.09945312 7.29550781 0.05046875 6.65742188 0 6 C0.66 6 1.32 6 2 6 C2 5.34 2 4.68 2 4 C1.34 4 0.68 4 0 4 C0 2.68 0 1.36 0 0 Z " fill="#231F23" transform="translate(153,259)"/>
<path d="M0 0 C3.6607519 1.22025063 3.92339441 2.126491 5.6875 5.4375 C6.34298828 6.64212891 6.34298828 6.64212891 7.01171875 7.87109375 C8 10 8 10 8 12 C7.01 12 6.02 12 5 12 C5 13.98 5 15.96 5 18 C4.34 17.67 3.68 17.34 3 17 C2.17117636 14.32902064 1.45856015 11.71485203 0.8125 9 C0.62236328 8.24976562 0.43222656 7.49953125 0.23632812 6.7265625 C-0.2276295 4.8296435 -0.6198456 2.91547409 -1 1 C-0.67 0.67 -0.34 0.34 0 0 Z " fill="#CDC7C9" transform="translate(195,61)"/>
<path d="M0 0 C3.69188728 3.25512383 5.80242239 6.98172694 8 11.3125 C8.66560492 12.60080952 9.33226865 13.88857257 10 15.17578125 C10.48533203 16.12251709 10.48533203 16.12251709 10.98046875 17.08837891 C12.02840853 19.05326598 13.16281337 20.94870755 14.3125 22.85546875 C14.869375 23.89316406 15.42625 24.93085937 16 26 C15.67 26.66 15.34 27.32 15 28 C11.24703695 23.84131122 9.10341922 20.25854804 7 15 C5.16214554 11.32039289 5.16214554 11.32039289 2 9 C1.3671875 6.93359375 1.3671875 6.93359375 0.875 4.4375 C0.70742187 3.61121094 0.53984375 2.78492187 0.3671875 1.93359375 C0.24601563 1.29550781 0.12484375 0.65742187 0 0 Z " fill="#CAC6C8" transform="translate(215,95)"/>
<path d="M0 0 C1.86901854 1.18523127 3.72105343 2.39736895 5.5625 3.625 C5.25 5.5 5.25 5.5 4.5625 7.625 C3.5725 8.285 2.5825 8.945 1.5625 9.625 C0.9025 8.965 0.2425 8.305 -0.4375 7.625 C-0.0625 5.5 -0.0625 5.5 0.5625 3.625 C-0.0975 3.625 -0.7575 3.625 -1.4375 3.625 C-1.4375 2.635 -1.4375 1.645 -1.4375 0.625 C-3.18715358 0.57070041 -4.93729787 0.53207177 -6.6875 0.5 C-7.66203125 0.47679687 -8.6365625 0.45359375 -9.640625 0.4296875 C-12.4571498 0.62637219 -14.04699036 1.17931084 -16.4375 2.625 C-17.0975 1.965 -17.7575 1.305 -18.4375 0.625 C-12.63862641 -2.46773258 -5.99609574 -2.3984383 0 0 Z " fill="#1E171D" transform="translate(170.4375,240.375)"/>
<path d="M0 0 C1.22589844 0.01353516 1.22589844 0.01353516 2.4765625 0.02734375 C3.41628906 0.04474609 3.41628906 0.04474609 4.375 0.0625 C2.5 4.9375 2.5 4.9375 1.375 6.0625 C-0.62458364 6.10330783 -2.62545254 6.10504356 -4.625 6.0625 C-4.295 5.0725 -3.965 4.0825 -3.625 3.0625 C-4.615 2.4025 -5.605 1.7425 -6.625 1.0625 C-4.21954362 -0.14022819 -2.67503047 -0.03821472 0 0 Z " fill="#020102" transform="translate(128.625,239.9375)"/>
<path d="M0 0 C1.1171875 3.71875 1.1171875 3.71875 0.0625 6.25 C-0.288125 6.8275 -0.63875 7.405 -1 8 C-0.34 8.33 0.32 8.66 1 9 C0.01 9.66 -0.98 10.32 -2 11 C-5.92542463 14.89677444 -5.92542463 14.89677444 -7 20 C-7.99 20 -8.98 20 -10 20 C-8.56347895 15.08558588 -6.45840385 10.99761642 -3.875 6.625 C-3.50246094 5.98433594 -3.12992188 5.34367187 -2.74609375 4.68359375 C-1.83565998 3.11951523 -0.91851809 1.55934466 0 0 Z " fill="#2E2A2D" transform="translate(158,17)"/>
<path d="M0 0 C2.30645358 0.93699677 3.4842052 1.84196676 5 3.8125 C5 4.8025 5 5.7925 5 6.8125 C3.35 7.4725 1.7 8.1325 0 8.8125 C-0.33 6.8325 -0.66 4.8525 -1 2.8125 C-2.32 2.4825 -3.64 2.1525 -5 1.8125 C-2 -0.1875 -2 -0.1875 0 0 Z " fill="#201B1E" transform="translate(171,263.1875)"/>
<path d="M0 0 C0.33 0 0.66 0 1 0 C1.13277344 0.67546875 1.26554688 1.3509375 1.40234375 2.046875 C1.57894531 2.93890625 1.75554687 3.8309375 1.9375 4.75 C2.11152344 5.63171875 2.28554687 6.5134375 2.46484375 7.421875 C2.92368488 9.63235053 3.43336074 11.81512068 4 14 C4.66 14 5.32 14 6 14 C6 16.64 6 19.28 6 22 C3.70366176 18.55549263 3.45983515 16.06187717 3 12 C2.34 12 1.68 12 1 12 C-0.41404314 8.19975907 -1.34892324 5.07077118 -1 1 C-0.67 0.67 -0.34 0.34 0 0 Z " fill="#D5D0D1" transform="translate(214,131)"/>
<path d="M0 0 C0.66 0 1.32 0 2 0 C2.9375 2.625 2.9375 2.625 3 6 C0.9456142 8.38782014 -1.43042604 10.19296794 -4 12 C-4 11.34 -4 10.68 -4 10 C-4.66 9.67 -5.32 9.34 -6 9 C-3.63707344 6.47411298 -2.33537489 5.11179163 1 4 C0.67 2.68 0.34 1.36 0 0 Z " fill="#151215" transform="translate(141,97)"/>
<path d="M0 0 C0.99 0.33 1.98 0.66 3 1 C3.33 3.31 3.66 5.62 4 8 C0.34683329 6.75023244 -0.78065836 6.32901247 -3 3 C-2.34 3 -1.68 3 -1 3 C-0.67 2.01 -0.34 1.02 0 0 Z " fill="#130F12" transform="translate(150,265)"/>
<path d="M0 0 C2.81631641 2.49493496 4.40955981 5.26562818 6.1875 8.5625 C6.71730469 9.53316406 7.24710937 10.50382813 7.79296875 11.50390625 C9 14 9 14 9 16 C8.34 16 7.68 16 7 16 C5.82558465 13.89983377 4.66035988 11.79541245 3.5 9.6875 C3.16613281 9.09259766 2.83226562 8.49769531 2.48828125 7.88476562 C0.93174886 5.04171156 0 3.29339012 0 0 Z " fill="#C5C2C3" transform="translate(271,194)"/>
<path d="M0 0 C0.33 0.66 0.66 1.32 1 2 C0.00390625 4.05859375 0.00390625 4.05859375 -1.4375 6.4375 C-3.60032304 9.94634464 -3.60032304 9.94634464 -4 14 C-5.98 14.99 -5.98 14.99 -8 16 C-7.43555175 11.65136348 -5.84572036 8.82172345 -3.4375 5.1875 C-2.79683594 4.21167969 -2.15617187 3.23585937 -1.49609375 2.23046875 C-0.75552734 1.12638672 -0.75552734 1.12638672 0 0 Z " fill="#635D61" transform="translate(75,164)"/>
<path d="M0 0 C0.66 0.33 1.32 0.66 2 1 C1.360625 1.9075 0.72125 2.815 0.0625 3.75 C-2.06090961 6.71154882 -2.06090961 6.71154882 -2.5625 9.3125 C-2.706875 9.869375 -2.85125 10.42625 -3 11 C-3.99 11.33 -4.98 11.66 -6 12 C-5.59791618 6.37082652 -3.71069698 3.99613521 0 0 Z " fill="#372F34" transform="translate(150,242)"/>
<path d="M0 0 C1.41702513 0.14230808 2.8336096 0.28900746 4.25 0.4375 C5.43335938 0.55931641 5.43335938 0.55931641 6.640625 0.68359375 C8.82364639 0.97634993 10.8773182 1.42064419 13 2 C12.67 2.99 12.34 3.98 12 5 C7.25 4.25 7.25 4.25 5 2 C5 2.99 5 3.98 5 5 C4.01 5 3.02 5 2 5 C2.33 4.01 2.66 3.02 3 2 C2.01 1.34 1.02 0.68 0 0 Z " fill="#4C4D4D" transform="translate(153,209)"/>
<path d="M0 0 C3.22269618 3.79817765 5.74520378 7.57391854 8 12 C7.67 12.66 7.34 13.32 7 14 C6.34 12.35 5.68 10.7 5 9 C4.34 9 3.68 9 3 9 C1.01046676 7.01046676 0.02253067 5.59565478 -1 3 C-0.67 2.01 -0.34 1.02 0 0 Z " fill="#2E2B2D" transform="translate(180,34)"/>
<path d="M0 0 C3.07575879 2.49590263 3.54972126 4.58313246 4.125 8.4375 C4.62719472 11.67533441 5.14691966 14.83462295 6 18 C5.34 18 4.68 18 4 18 C3.32678716 15.75194998 2.66165877 13.50147776 2 11.25 C1.62875 9.99703125 1.2575 8.7440625 0.875 7.453125 C0 4 0 4 0 0 Z " fill="#C3BDBE" transform="translate(230,200)"/>
<path d="M0 0 C0.33 0.66 0.66 1.32 1 2 C1.66 2 2.32 2 3 2 C2.67 2.99 2.34 3.98 2 5 C1.34 4.67 0.68 4.34 0 4 C-0.226875 4.7425 -0.45375 5.485 -0.6875 6.25 C-2.24407532 9.51139591 -4.08518854 10.92894975 -7 13 C-5.35821735 8.22390502 -2.73453298 4.20617096 0 0 Z " fill="#676565" transform="translate(58,194)"/>
<path d="M0 0 C0.33 0.99 0.66 1.98 1 3 C1.66 3 2.32 3 3 3 C2.67 3.99 2.34 4.98 2 6 C0.68 6 -0.64 6 -2 6 C-2.268125 6.928125 -2.53625 7.85625 -2.8125 8.8125 C-3.91148371 11.76240366 -4.62418561 13.05615186 -7 15 C-6.31238981 11.34435091 -4.74550455 8.48132728 -2.9375 5.25 C-2.11572266 3.77273437 -2.11572266 3.77273437 -1.27734375 2.265625 C-0.64505859 1.14414063 -0.64505859 1.14414063 0 0 Z " fill="#403B3D" transform="translate(121,82)"/>
<path d="M0 0 C3.71797409 2.70398116 4.26361516 6.7029779 5 11 C5 11.99 5 12.98 5 14 C4.34 14 3.68 14 3 14 C2.49307308 12.4188708 1.99473557 10.83498617 1.5 9.25 C1.2215625 8.36828125 0.943125 7.4865625 0.65625 6.578125 C0 4 0 4 0 0 Z " fill="#CAC5C8" transform="translate(226,185)"/>
<path d="M0 0 C0.91058531 3.07322544 1.08886184 5.80097361 1 9 C-0.98 9.66 -2.96 10.32 -5 11 C-3.77472971 6.94718288 -2.30119506 3.55639236 0 0 Z " fill="#362D35" transform="translate(99,121)"/>
<path d="M0 0 C3.29078593 2.79716804 5.06305458 6.19528578 7 10 C6.67 10.66 6.34 11.32 6 12 C5.5875 11.38125 5.175 10.7625 4.75 10.125 C2.94426121 7.93231719 1.5909466 7.07211583 -1 6 C-0.67 4.02 -0.34 2.04 0 0 Z " fill="#2F2D2F" transform="translate(173,22)"/>
<path d="M0 0 C2.46717524 2.2639961 4.10134139 4.59060244 5.75 7.5 C6.42289063 8.66015625 6.42289063 8.66015625 7.109375 9.84375 C8 12 8 12 7 15 C0.29612756 5.77448747 0.29612756 5.77448747 0 0 Z " fill="#C2BFC0" transform="translate(248,153)"/>
<path d="M0 0 C0.61875 0.33 1.2375 0.66 1.875 1 C-1.125 2 -1.125 2 -4.125 1 C-10.44303673 0.58429866 -10.44303673 0.58429866 -16.125 3 C-16.785 2.34 -17.445 1.68 -18.125 1 C-12.53477486 -1.98145341 -5.9325054 -1.89840173 0 0 Z " fill="#4C4A4E" transform="translate(170.125,240)"/>
<path d="M0 0 C2.64 0.33 5.28 0.66 8 1 C7.01 1.33 6.02 1.66 5 2 C5 2.66 5 3.32 5 4 C2.69 4.33 0.38 4.66 -2 5 C-1.34 3.35 -0.68 1.7 0 0 Z " fill="#6A6868" transform="translate(64,184)"/>
<path d="M0 0 C0.99 0.33 1.98 0.66 3 1 C3 4.3 3 7.6 3 11 C0.82905523 8.82905523 0.5137 7.84247144 -0.1875 4.9375 C-0.36667969 4.22464844 -0.54585937 3.51179688 -0.73046875 2.77734375 C-0.81941406 2.19082031 -0.90835938 1.60429688 -1 1 C-0.67 0.67 -0.34 0.34 0 0 Z " fill="#BEB9BB" transform="translate(195,61)"/>
<path d="M0 0 C0.99 1.485 0.99 1.485 2 3 C2.99 3 3.98 3 5 3 C5 4.65 5 6.3 5 8 C3.68 8.33 2.36 8.66 1 9 C0.29925156 5.846632 0 3.27275026 0 0 Z " fill="#DBD6D7" transform="translate(199,69)"/>
<path d="M0 0 C0.33 0.99 0.66 1.98 1 3 C0.67 3.66 0.34 4.32 0 5 C-0.66 5 -1.32 5 -2 5 C-1.67 6.65 -1.34 8.3 -1 10 C-2.32 9.67 -3.64 9.34 -5 9 C-4.5206753 4.68607774 -3.2542015 2.83430453 0 0 Z " fill="#4E4A4B" transform="translate(54,203)"/>
<path d="M0 0 C0.99 0.33 1.98 0.66 3 1 C3.625 4.375 3.625 4.375 4 8 C3.34 8.66 2.68 9.32 2 10 C0.68373308 6.38026598 0 3.90432869 0 0 Z " fill="#CDC8C8" transform="translate(210,121)"/>
<path d="M0 0 C2 4 2 4 2 7 C0.35 7.66 -1.3 8.32 -3 9 C-2.01 6.03 -1.02 3.06 0 0 Z " fill="#271F22" transform="translate(204,245)"/>
<path d="M0 0 C3.32643967 2.98232523 5.29152862 5.86370087 7 10 C6.67 10.66 6.34 11.32 6 12 C3.32098068 9.68118495 2.33795597 7.68185532 1.3125 4.3125 C1.06113281 3.50425781 0.80976563 2.69601563 0.55078125 1.86328125 C0.36902344 1.24839844 0.18726563 0.63351563 0 0 Z " fill="#C6C0C1" transform="translate(240,139)"/>
<path d="M0 0 C2.79872437 2.52788007 4.45773019 4.20411134 5 8 C2.525 7.01 2.525 7.01 0 6 C0 4.02 0 2.04 0 0 Z " fill="#C7C5C6" transform="translate(281,212)"/>
<path d="M0 0 C0.33 0 0.66 0 1 0 C1.33 3.63 1.66 7.26 2 11 C1.34 10.67 0.68 10.34 0 10 C-0.44921875 7.96875 -0.44921875 7.96875 -0.6875 5.5 C-0.77386719 4.6853125 -0.86023438 3.870625 -0.94921875 3.03125 C-0.96597656 2.3609375 -0.98273438 1.690625 -1 1 C-0.67 0.67 -0.34 0.34 0 0 Z " fill="#C8C3C5" transform="translate(214,131)"/>
<path d="M0 0 C0.99 0.33 1.98 0.66 3 1 C0.36 2.98 -2.28 4.96 -5 7 C-3.75023244 3.34683329 -3.32901247 2.21934164 0 0 Z " fill="#2D2A2C" transform="translate(105,114)"/>
</svg>
